<svg xmlns="http://www.w3.org/2000/svg" xmlns:xlink="http://www.w3.org/1999/xlink" x="0px" y="0px"
   viewBox="0 0 100 16">
  <polygon points="14.9,10.8 14.7,11.8 14.6,11.8 14.4,10.8 11.8,1.6 10.7,1.6 8.1,10.8 7.9,11.8 7.8,11.8 7.6,10.8
    4.4,1.6 2.9,1.6 7.3,14.3 8.5,14.3 11.1,5.2 11.2,4.9 11.3,4.9 11.3,5.2 13.9,14.3 15.2,14.3 19.6,1.6 18.1,1.6 	"/>
  <polygon points="22.5,14.3 31.8,14.3 31.8,13 24,13 24,8.8 30.9,8.8 30.9,7.4 24,7.4 24,3 31.8,3 31.8,1.6
    22.5,1.6 	"/>
    <path d="M43.7,7.9V7.8c1.2-0.4,2-1.3,2-2.7c0-2.3-1.8-3.4-4.5-3.4h-5.6v12.7h5.9c2.7,0,4.7-1.1,4.7-3.5
      C46.2,9.3,45.1,8.3,43.7,7.9z M41.2,3c1.9,0,3,0.6,3,2.1c0,1.3-1.2,2.1-3,2.1h-4.1V3 M41.5,13h-4.4V8.6h4.6
      c1.6,0.1,2.9,0.8,2.9,2.1C44.6,12.3,43.2,13,41.5,13z"/>
  <polygon points="65.9,1.6 64.4,1.6 64.4,14.3 73.3,14.3 73.3,13 65.9,13 	"/>
  <polygon points="79.6,7.3 79.2,8 79.1,8 78.7,7.3 75.2,1.6 73.5,1.6 78.4,9.5 78.4,14.3 79.9,14.3 79.9,9.5
    84.8,1.6 83.1,1.6 	"/>
  <path d="M92.7,7.1c-2.7-0.8-3.6-1.3-3.6-2.3c0-1.3,1.4-2,3.2-2c2.4,0,3.7,1,3.7,1l0.8-1.2c0,0-1.4-1.2-4.5-1.2
    c-2.9,0-4.7,1.2-4.7,3.4c0,1.9,1.3,2.8,4.4,3.7c2.8,0.8,3.6,1.4,3.6,2.6c0,1.3-1,2.2-3.4,2.2c-2.5,0-3.8-1.2-3.8-1.2l-0.8,1.1
    c0,0,1.4,1.5,4.6,1.5c3.4,0,4.8-1.5,4.8-3.6C97.1,9.2,96.1,8,92.7,7.1z"/>
  <polygon points="54.7,1.6 48.5,14.3 50.2,14.3 54.8,4.7 55,4.7 59.6,14.3 61.3,14.3 55.1,1.6 		"/>
  <circle cx="54.9" cy="12" r="1.2"/>
</svg>
